# xmcd CD database file
#
# Track frame offsets:
#	150
#	30070
#	48600
#	65548
#	88778
#	107153
#	126975
#	145665
#	166630
#	183430
#	212830
#	244053
#	257635
#	280790
#	304438
#	325268
#
# Disc length: 4669 seconds
#
# Revision: 0
# Processed by: cddbd v1.5.1PL0 Copyright (c) Steve Scherf et al.
# Submitted via: CDex 1.51
#
DISCID=e3123b10
DTITLE=Jane Monheit - Live at the Rainbow Room
DYEAR=2003
DGENRE=Jazz
TTITLE0=Over the Rainbow
TTITLE1=Just Squeeze Me
TTITLE2=Chega de Saudade
TTITLE3=Dindi
TTITLE4=More Than You Know
TTITLE5=Since You Asked
TTITLE6=It Might As Well Be Spring
TTITLE7=Tea For Two
TTITLE8=Hit The Road To Dreamland
TTITLE9=Começar de Novo
TTITLE10=It Never Entered My Mind
TTITLE11=Turn Out The Stars
TTITLE12=Haunted Heart
TTITLE13=Cheek to Cheek
TTITLE14=Waters of March
TTITLE15=Some Other Time
EXTD=YEAR: 2003
EXTT0=
EXTT1=
EXTT2=
EXTT3=
EXTT4=
EXTT5=
EXTT6=
EXTT7=
EXTT8=
EXTT9=
EXTT10=
EXTT11=
EXTT12=
EXTT13=
EXTT14=
EXTT15=
PLAYORDER=
